<?xml version="1.0" standalone="no"?>
<!DOCTYPE svg PUBLIC "-//W3C//DTD SVG 20010904//EN"
 "http://www.w3.org/TR/2001/REC-SVG-20010904/DTD/svg10.dtd">
<svg version="1.0" xmlns="http://www.w3.org/2000/svg"
 width="260.000000pt" height="260.000000pt" viewBox="0 0 260.000000 260.000000"
 preserveAspectRatio="xMidYMid meet">
<metadata>
Created by potrace 1.14, written by Peter Selinger 2001-2017
</metadata>
<g transform="translate(0.000000,260.000000) scale(0.100000,-0.100000)"
fill="#000000" stroke="none">
<path d="M1410 2455 l0 -55 -60 0 -60 0 0 -370 0 -370 -55 0 -55 0 0 -55 0
-55 -85 0 -85 0 0 -55 0 -55 -85 0 -85 0 0 -60 0 -60 -55 0 -55 0 0 -55 0 -55
-110 0 -110 0 0 55 0 55 -60 0 -60 0 0 60 0 60 -55 0 -55 0 0 110 0 110 -55 0
-55 0 0 -340 0 -340 55 0 55 0 0 -55 0 -55 55 0 55 0 0 -55 0 -55 60 0 60 0 0
-55 0 -55 55 0 55 0 0 -60 0 -60 55 0 55 0 0 -225 0 -225 115 0 115 0 0 55 0
55 -60 0 -60 0 0 60 0 60 60 0 60 0 0 55 0 55 55 0 55 0 0 55 0 55 55 0 55 0
0 -55 0 -55 55 0 55 0 0 -170 0 -170 115 0 115 0 0 55 0 55 -55 0 -55 0 0 230
0 230 55 0 55 0 0 55 0 55 55 0 55 0 0 85 0 85 60 0 60 0 0 195 0 195 55 0 55
0 0 -55 0 -55 55 0 55 0 0 115 0 115 -110 0 -110 0 0 110 0 110 225 0 225 0 0
60 0 60 -170 0 -170 0 0 55 0 55 280 0 280 0 0 255 0 255 -55 0 -55 0 0 55 0
55 -450 0 -450 0 0 -55z m220 -170 l0 -55 -55 0 -55 0 0 55 0 55 55 0 55 0 0
-55z"/>
</g>
</svg>
